<?xml version="1.0" encoding="iso-8859-1"?>
<!-- Generator: Adobe Illustrator 19.0.0, SVG Export Plug-In . SVG Version: 6.00 Build 0)  -->
<svg version="1.1" id="Layer_1" xmlns="http://www.w3.org/2000/svg" xmlns:xlink="http://www.w3.org/1999/xlink" x="0px" y="0px"
	 viewBox="0 0 512 512" style="enable-background:new 0 0 512 512;" xml:space="preserve">
<circle style="fill:#4BBCD6;" cx="354.042" cy="157.957" r="149.787"/>
<circle style="fill:#D2F0E7;" cx="354.042" cy="157.957" r="117.106"/>
<circle style="fill:#FFFFFF;" cx="354.042" cy="157.957" r="73.532"/>
<polygon style="fill:#235C6D;" points="210.657,270.531 8.17,473.018 38.983,503.83 241.237,301.575 "/>
<g>
	<path style="fill:#3E0412;" d="M354.042,0c-87.098,0-157.957,70.86-157.957,157.957c0,40.616,15.413,77.697,40.692,105.711
		l-10.801,10.801l-8.914-9.004c-0.195-0.245-0.401-0.485-0.627-0.711c-0.211-0.211-0.434-0.407-0.661-0.592l-7.013-7.083
		c-3.175-3.207-8.349-3.231-11.554-0.058c-3.207,3.175-3.233,8.348-0.059,11.555l1.945,1.964L2.393,467.241
		c-3.191,3.191-3.191,8.364,0,11.554l30.812,30.811c1.596,1.595,3.687,2.393,5.778,2.393s4.182-0.797,5.778-2.393L241.248,313.12
		l1.887,1.906c1.598,1.613,3.702,2.422,5.806,2.422c2.077,0,4.155-0.788,5.747-2.364c3.207-3.176,3.233-8.348,0.059-11.555
		l-17.273-17.447l10.859-10.859c28.014,25.279,65.095,40.692,105.709,40.692c87.098,0,157.957-70.86,157.957-157.957
		S441.14,0,354.042,0z M38.982,492.276l-19.258-19.258l190.865-190.865l19.161,19.354L38.982,492.276z M354.042,299.574
		c-78.089,0-141.617-63.529-141.617-141.617S275.955,16.34,354.042,16.34S495.659,79.87,495.659,157.957
		S432.131,299.574,354.042,299.574z"/>
	<path style="fill:#3E0412;" d="M354.042,32.681c-69.078,0-125.277,56.199-125.277,125.277s56.199,125.277,125.277,125.277
		c27.442,0,53.503-8.715,75.363-25.201c3.604-2.717,4.322-7.84,1.605-11.443c-2.717-3.601-7.84-4.322-11.443-1.604
		c-19.004,14.332-41.662,21.907-65.525,21.907c-60.068,0-108.936-48.869-108.936-108.936S293.975,49.021,354.042,49.021
		S462.979,97.89,462.979,157.957c0,23.865-7.575,46.522-21.907,65.524c-2.717,3.603-1.999,8.726,1.604,11.443
		c3.603,2.717,8.727,1.998,11.444-1.604c16.485-21.859,25.2-47.919,25.2-75.363C479.319,88.88,423.12,32.681,354.042,32.681z"/>
	<path style="fill:#3E0412;" d="M354.042,223.319c-4.513,0-8.17,3.658-8.17,8.17c0,4.512,3.657,8.17,8.17,8.17
		c45.051,0,81.702-36.652,81.702-81.702s-36.652-81.702-81.702-81.702c-15.422,0-30.461,4.339-43.49,12.547
		c-3.818,2.405-4.963,7.45-2.558,11.268c2.406,3.818,7.452,4.964,11.268,2.558c10.418-6.563,22.443-10.033,34.779-10.033
		c36.04,0,65.362,29.321,65.362,65.362S390.083,223.319,354.042,223.319z"/>
	<path style="fill:#3E0412;" d="M284.888,114.469c-8.208,13.028-12.547,28.066-12.547,43.488c0,4.512,3.657,8.17,8.17,8.17
		c4.513,0,8.17-3.658,8.17-8.17c0-12.336,3.47-24.361,10.032-34.778c2.405-3.818,1.26-8.863-2.558-11.268
		C292.338,109.507,287.293,110.65,284.888,114.469z"/>
</g>
<g>
</g>
<g>
</g>
<g>
</g>
<g>
</g>
<g>
</g>
<g>
</g>
<g>
</g>
<g>
</g>
<g>
</g>
<g>
</g>
<g>
</g>
<g>
</g>
<g>
</g>
<g>
</g>
<g>
</g>
</svg>
